<?xml version="1.0" encoding="utf-8"?>
<!-- Generator: Adobe Illustrator 27.5.0, SVG Export Plug-In . SVG Version: 6.00 Build 0)  -->
<svg version="1.1" xmlns="http://www.w3.org/2000/svg" xmlns:xlink="http://www.w3.org/1999/xlink" x="0px" y="0px"
	 viewBox="0 0 750 500" style="enable-background:new 0 0 750 500;" xml:space="preserve">
<g id="Background_Simple">
	<g>
		<path style="fill:#92E3A9;" d="M609.401,78.838c-17.247-9.93-35.465-17.978-53.85-23.985
			C516.67,42.147,475.45,37.176,434.644,37.648c-115.114,1.331-153.042,57.89-227.567,56.559
			c-74.525-1.331-167.797,47.522-173.669,131.084c-5.873,83.562,15.97,128.422,82.51,163.689
			c66.54,35.266,184.316-15.304,280.134,1.331c95.818,16.635,182.985,41.92,248.86,3.327
			c62.538-36.639,85.785-118.127,69.558-185.976C701.035,151.492,658.378,107.037,609.401,78.838z"/>
		<path style="opacity:0.7;fill:#FFFFFF;" d="M609.401,78.838c-17.247-9.93-35.465-17.978-53.85-23.985
			C516.67,42.147,475.45,37.176,434.644,37.648c-115.114,1.331-153.042,57.89-227.567,56.559
			c-74.525-1.331-167.797,47.522-173.669,131.084c-5.873,83.562,15.97,128.422,82.51,163.689
			c66.54,35.266,184.316-15.304,280.134,1.331c95.818,16.635,182.985,41.92,248.86,3.327
			c62.538-36.639,85.785-118.127,69.558-185.976C701.035,151.492,658.378,107.037,609.401,78.838z"/>
	</g>
</g>
<g id="Text">
	<g>
		<g>
			<path style="fill:#263238;" d="M38.701,113.946v-11.34h3.598c0.681,0,1.236,0.129,1.666,0.385
				c0.429,0.257,0.749,0.628,0.959,1.113c0.21,0.485,0.315,1.073,0.315,1.764c0,0.812-0.138,1.447-0.413,1.904
				c-0.275,0.457-0.651,0.782-1.127,0.973c-0.476,0.191-1.022,0.287-1.638,0.287h-1.05v4.914H38.701z M41.011,107.408h0.812
				c0.336,0,0.595-0.054,0.777-0.161c0.182-0.107,0.306-0.277,0.371-0.511c0.065-0.233,0.098-0.532,0.098-0.896
				c0-0.345-0.026-0.635-0.077-0.868c-0.051-0.233-0.166-0.415-0.343-0.546c-0.177-0.13-0.457-0.196-0.84-0.196h-0.798V107.408z"/>
			<path style="fill:#263238;" d="M46.345,113.946v-11.34h2.31v9.772h2.66v1.568H46.345z"/>
			<path style="fill:#263238;" d="M51.847,113.946l2.198-11.34h2.562l2.184,11.34h-2.142l-0.406-2.492h-1.792l-0.434,2.492H51.847z
				 M54.661,110.04h1.358l-0.686-4.578L54.661,110.04z"/>
			<path style="fill:#263238;" d="M60.918,113.946v-4.494l-2.212-6.846h2.17l1.218,3.99l1.134-3.99h2.1l-2.184,6.846v4.494H60.918z"
				/>
			<path style="fill:#263238;" d="M66.21,113.946v-11.34h4.942v1.596h-2.632v3.01h2.03v1.61h-2.03v3.556h2.66v1.568H66.21z"/>
			<path style="fill:#263238;" d="M72.342,113.946v-11.34h2.94c0.765,0,1.421,0.087,1.967,0.259c0.546,0.173,0.966,0.479,1.26,0.917
				c0.294,0.439,0.441,1.045,0.441,1.82c0,0.467-0.04,0.88-0.119,1.239c-0.079,0.359-0.219,0.672-0.42,0.938
				c-0.201,0.266-0.483,0.479-0.847,0.637l1.568,5.53h-2.366l-1.302-5.138h-0.812v5.138H72.342z M74.652,107.437h0.672
				c0.373,0,0.667-0.061,0.882-0.182c0.215-0.121,0.366-0.306,0.455-0.553c0.089-0.247,0.133-0.553,0.133-0.917
				c0-0.522-0.096-0.921-0.287-1.197c-0.191-0.275-0.548-0.413-1.071-0.413h-0.784V107.437z"/>
			<path style="fill:#263238;" d="M83.402,114.1c-0.7,0-1.283-0.128-1.75-0.385c-0.467-0.257-0.819-0.644-1.057-1.162
				c-0.238-0.518-0.375-1.178-0.413-1.981l1.988-0.336c0.019,0.467,0.067,0.856,0.147,1.169c0.079,0.313,0.201,0.546,0.364,0.7
				c0.163,0.154,0.366,0.231,0.609,0.231c0.298,0,0.502-0.093,0.609-0.28c0.107-0.187,0.161-0.401,0.161-0.644
				c0-0.476-0.115-0.875-0.343-1.197c-0.229-0.322-0.53-0.646-0.903-0.973l-1.176-1.022c-0.42-0.354-0.763-0.756-1.029-1.204
				c-0.266-0.448-0.399-0.998-0.399-1.652c0-0.933,0.273-1.65,0.819-2.149c0.546-0.499,1.295-0.749,2.247-0.749
				c0.569,0,1.036,0.093,1.4,0.28c0.364,0.187,0.646,0.437,0.847,0.749c0.201,0.313,0.34,0.654,0.42,1.022
				c0.079,0.369,0.128,0.735,0.147,1.099l-1.974,0.294c-0.019-0.345-0.049-0.648-0.091-0.91s-0.126-0.467-0.252-0.616
				c-0.126-0.149-0.315-0.224-0.567-0.224c-0.271,0-0.472,0.1-0.602,0.301c-0.131,0.201-0.196,0.422-0.196,0.665
				c0,0.401,0.091,0.73,0.273,0.987c0.182,0.257,0.431,0.525,0.749,0.805l1.148,1.008c0.476,0.411,0.884,0.88,1.225,1.407
				c0.341,0.527,0.511,1.178,0.511,1.953c0,0.532-0.122,1.013-0.364,1.442c-0.243,0.429-0.581,0.765-1.015,1.008
				C84.502,113.979,83.99,114.1,83.402,114.1z"/>
		</g>
	</g>
	<g>
		<path style="fill:#263238;" d="M47.108,181.446l4.09-16.648h-5.317v-2.839h8.95v2.454l-4.114,17.034H47.108z"/>
		<path style="fill:#263238;" d="M61.904,181.734c-1.283,0-2.31-0.253-3.08-0.758c-0.77-0.505-1.319-1.215-1.648-2.129
			c-0.329-0.915-0.493-1.957-0.493-3.128c0-0.529,0.048-1.026,0.144-1.492c0.096-0.465,0.241-0.89,0.433-1.275
			c0.192-0.385,0.429-0.726,0.709-1.022c0.281-0.297,0.614-0.541,0.999-0.734c-0.529-0.385-0.991-0.926-1.383-1.624
			c-0.393-0.698-0.598-1.583-0.614-2.658c-0.016-1.075,0.16-2.001,0.529-2.779c0.369-0.778,0.922-1.375,1.66-1.792
			c0.738-0.417,1.652-0.626,2.743-0.626c1.107,0,2.025,0.208,2.755,0.626c0.729,0.417,1.271,1.015,1.624,1.792
			c0.353,0.778,0.521,1.704,0.505,2.779c-0.016,1.091-0.212,1.985-0.589,2.683c-0.377,0.697-0.838,1.231-1.383,1.6
			c0.385,0.192,0.718,0.437,0.999,0.734c0.28,0.297,0.517,0.638,0.709,1.022c0.193,0.385,0.341,0.81,0.445,1.275
			c0.104,0.466,0.156,0.962,0.156,1.492c0.032,1.171-0.124,2.213-0.469,3.128c-0.345,0.914-0.898,1.624-1.66,2.129
			C64.233,181.482,63.203,181.734,61.904,181.734z M61.904,178.968c0.465,0,0.81-0.16,1.035-0.481
			c0.224-0.321,0.369-0.714,0.433-1.179c0.064-0.465,0.096-0.914,0.096-1.347c0.016-0.513-0.012-1.01-0.084-1.492
			c-0.072-0.481-0.221-0.874-0.445-1.179c-0.225-0.305-0.569-0.457-1.035-0.457c-0.449,0-0.79,0.152-1.022,0.457
			c-0.232,0.305-0.385,0.694-0.457,1.167c-0.072,0.474-0.108,0.975-0.108,1.504c0,0.433,0.032,0.886,0.096,1.359
			c0.064,0.473,0.212,0.866,0.445,1.179C61.09,178.811,61.438,178.968,61.904,178.968z M61.904,169.801
			c0.321,0,0.581-0.12,0.782-0.361c0.2-0.24,0.349-0.585,0.445-1.034c0.096-0.449,0.144-0.979,0.144-1.588
			c0-0.689-0.108-1.247-0.325-1.672c-0.217-0.425-0.565-0.638-1.047-0.638c-0.481,0-0.838,0.213-1.07,0.638
			c-0.233,0.425-0.349,0.975-0.349,1.648c0,0.61,0.044,1.143,0.132,1.6c0.088,0.457,0.241,0.806,0.457,1.046
			C61.291,169.681,61.567,169.801,61.904,169.801z"/>
		<path style="fill:#263238;" d="M71.244,169.83c-0.91,0-1.56-0.246-1.949-0.738c-0.39-0.492-0.585-1.22-0.585-2.186v-0.571
			c0-0.984,0.19-1.706,0.571-2.165c0.381-0.46,1.035-0.689,1.963-0.689c0.938,0,1.597,0.225,1.977,0.675
			c0.381,0.451,0.571,1.163,0.571,2.137v0.655c0,0.947-0.192,1.663-0.578,2.151C72.829,169.586,72.172,169.83,71.244,169.83z
			 M71.244,168.451c0.241,0,0.417-0.064,0.529-0.195c0.111-0.13,0.181-0.315,0.208-0.557c0.028-0.242,0.042-0.524,0.042-0.85v-0.487
			c0-0.492-0.035-0.863-0.104-1.114c-0.07-0.25-0.295-0.376-0.675-0.376c-0.372,0-0.594,0.123-0.668,0.369
			c-0.074,0.246-0.111,0.619-0.111,1.121v0.502c0,0.325,0.016,0.605,0.049,0.842c0.032,0.237,0.104,0.42,0.216,0.55
			C70.84,168.387,71.012,168.451,71.244,168.451z M72.608,174.787l3.383-11.278h1.267l-3.384,11.278H72.608z M78.623,174.814
			c-0.919,0-1.571-0.246-1.956-0.738c-0.385-0.492-0.578-1.216-0.578-2.172v-0.585c0-0.975,0.188-1.694,0.564-2.158
			c0.376-0.464,1.033-0.696,1.97-0.696s1.597,0.225,1.978,0.675c0.38,0.45,0.571,1.163,0.571,2.137v0.641
			c0,0.965-0.195,1.689-0.585,2.172C80.197,174.573,79.542,174.814,78.623,174.814z M78.623,173.436
			c0.241,0,0.416-0.065,0.522-0.195c0.106-0.13,0.176-0.313,0.208-0.55c0.033-0.236,0.049-0.513,0.049-0.828v-0.515
			c0-0.501-0.037-0.875-0.111-1.121c-0.074-0.246-0.297-0.369-0.668-0.369c-0.371,0-0.594,0.125-0.668,0.376
			c-0.075,0.251-0.112,0.622-0.112,1.114v0.515c0,0.315,0.014,0.592,0.042,0.828c0.028,0.237,0.1,0.42,0.216,0.55
			C78.217,173.371,78.391,173.436,78.623,173.436z"/>
	</g>
	<g>
		<g>
			<path style="fill:#263238;" d="M241.199,55.057l0.196-11.34h2.45l1.4,7.154l1.498-7.154h2.366l0.196,11.34h-1.68l-0.182-7.686
				l-1.442,7.686h-1.442l-1.512-7.742l-0.154,7.742H241.199z"/>
			<path style="fill:#263238;" d="M254.135,55.21c-0.831,0-1.489-0.149-1.974-0.448c-0.485-0.299-0.833-0.726-1.043-1.281
				c-0.21-0.555-0.315-1.22-0.315-1.995v-4.228c0-0.775,0.105-1.438,0.315-1.988c0.21-0.55,0.558-0.971,1.043-1.26
				c0.485-0.289,1.143-0.434,1.974-0.434c0.84,0,1.505,0.147,1.995,0.441c0.49,0.294,0.84,0.714,1.05,1.26
				c0.21,0.546,0.315,1.206,0.315,1.981v4.228c0,0.774-0.105,1.439-0.315,1.995c-0.21,0.556-0.56,0.983-1.05,1.281
				C255.64,55.061,254.975,55.21,254.135,55.21z M254.135,53.544c0.298,0,0.518-0.067,0.658-0.203
				c0.14-0.135,0.233-0.317,0.28-0.546c0.046-0.229,0.07-0.473,0.07-0.735v-5.362c0-0.261-0.023-0.504-0.07-0.728
				c-0.047-0.224-0.14-0.404-0.28-0.539c-0.14-0.135-0.359-0.203-0.658-0.203c-0.28,0-0.49,0.068-0.63,0.203
				c-0.14,0.135-0.233,0.315-0.28,0.539c-0.047,0.224-0.07,0.467-0.07,0.728v5.362c0,0.262,0.021,0.506,0.063,0.735
				c0.042,0.229,0.133,0.411,0.273,0.546C253.631,53.477,253.845,53.544,254.135,53.544z"/>
			<path style="fill:#263238;" d="M259.035,55.057v-11.34h1.61l2.52,5.908v-5.908h1.904v11.34h-1.54l-2.52-6.272v6.272H259.035z"/>
			<path style="fill:#263238;" d="M267.854,55.057v-9.618h-1.75v-1.722h5.796v1.722h-1.722v9.618H267.854z"/>
			<path style="fill:#263238;" d="M272.95,55.057v-11.34h2.31v4.662h2.002v-4.662h2.31v11.34h-2.31v-5.026h-2.002v5.026H272.95z"/>
			<path style="fill:#263238;" d="M281.322,55.057v-11.34h2.31v9.772h2.66v1.568H281.322z"/>
			<path style="fill:#263238;" d="M288.014,55.057v-4.494l-2.212-6.846h2.17l1.218,3.99l1.134-3.99h2.1l-2.184,6.846v4.494H288.014z
				"/>
			<path style="fill:#263238;" d="M296.806,55.057v-11.34h2.94c0.765,0,1.421,0.086,1.967,0.259c0.546,0.173,0.966,0.479,1.26,0.917
				c0.294,0.439,0.441,1.045,0.441,1.82c0,0.467-0.04,0.88-0.119,1.239c-0.079,0.359-0.219,0.672-0.42,0.938
				c-0.201,0.266-0.483,0.479-0.847,0.637l1.568,5.53h-2.366l-1.302-5.138h-0.812v5.138H296.806z M299.116,48.547h0.672
				c0.373,0,0.668-0.061,0.882-0.182c0.215-0.121,0.366-0.306,0.455-0.553c0.089-0.247,0.133-0.553,0.133-0.917
				c0-0.522-0.096-0.921-0.287-1.197c-0.191-0.275-0.548-0.413-1.071-0.413h-0.784V48.547z"/>
			<path style="fill:#263238;" d="M304.926,55.057v-11.34h4.942v1.596h-2.632v3.01h2.03v1.61h-2.03v3.556h2.66v1.568H304.926z"/>
			<path style="fill:#263238;" d="M311.058,55.057v-11.34h3.598c0.681,0,1.236,0.128,1.666,0.385
				c0.429,0.257,0.749,0.628,0.959,1.113c0.21,0.485,0.315,1.073,0.315,1.764c0,0.812-0.138,1.447-0.413,1.904
				c-0.275,0.457-0.651,0.782-1.127,0.973c-0.476,0.191-1.022,0.287-1.638,0.287h-1.05v4.914H311.058z M313.368,48.519h0.812
				c0.336,0,0.595-0.054,0.777-0.161c0.182-0.107,0.306-0.277,0.371-0.511c0.065-0.233,0.098-0.532,0.098-0.896
				c0-0.345-0.026-0.635-0.077-0.868c-0.051-0.233-0.166-0.415-0.343-0.546c-0.177-0.13-0.457-0.196-0.84-0.196h-0.798V48.519z"/>
			<path style="fill:#263238;" d="M321.95,55.21c-0.831,0-1.489-0.149-1.974-0.448c-0.485-0.299-0.833-0.726-1.043-1.281
				c-0.21-0.555-0.315-1.22-0.315-1.995v-4.228c0-0.775,0.105-1.438,0.315-1.988c0.21-0.55,0.558-0.971,1.043-1.26
				c0.485-0.289,1.143-0.434,1.974-0.434c0.84,0,1.505,0.147,1.995,0.441c0.49,0.294,0.84,0.714,1.05,1.26
				c0.21,0.546,0.315,1.206,0.315,1.981v4.228c0,0.774-0.105,1.439-0.315,1.995c-0.21,0.556-0.56,0.983-1.05,1.281
				C323.455,55.061,322.79,55.21,321.95,55.21z M321.95,53.544c0.298,0,0.518-0.067,0.658-0.203c0.14-0.135,0.233-0.317,0.28-0.546
				c0.046-0.229,0.07-0.473,0.07-0.735v-5.362c0-0.261-0.023-0.504-0.07-0.728c-0.047-0.224-0.14-0.404-0.28-0.539
				c-0.14-0.135-0.359-0.203-0.658-0.203c-0.28,0-0.49,0.068-0.63,0.203c-0.14,0.135-0.233,0.315-0.28,0.539
				c-0.047,0.224-0.07,0.467-0.07,0.728v5.362c0,0.262,0.021,0.506,0.063,0.735c0.042,0.229,0.133,0.411,0.273,0.546
				C321.446,53.477,321.66,53.544,321.95,53.544z"/>
			<path style="fill:#263238;" d="M326.85,55.057v-11.34h2.94c0.765,0,1.421,0.086,1.967,0.259c0.546,0.173,0.966,0.479,1.26,0.917
				c0.294,0.439,0.441,1.045,0.441,1.82c0,0.467-0.039,0.88-0.119,1.239c-0.079,0.359-0.219,0.672-0.42,0.938
				c-0.201,0.266-0.483,0.479-0.847,0.637l1.568,5.53h-2.366l-1.302-5.138h-0.812v5.138H326.85z M329.16,48.547h0.672
				c0.373,0,0.668-0.061,0.882-0.182c0.215-0.121,0.366-0.306,0.455-0.553c0.089-0.247,0.133-0.553,0.133-0.917
				c0-0.522-0.096-0.921-0.287-1.197c-0.191-0.275-0.548-0.413-1.071-0.413h-0.784V48.547z"/>
			<path style="fill:#263238;" d="M335.991,55.057v-9.618h-1.75v-1.722h5.796v1.722h-1.722v9.618H335.991z"/>
		</g>
	</g>
	<g>
		<path style="fill:#263238;" d="M603.346,378.408v-2.332c-1.723-0.067-3.01-0.618-3.863-1.655
			c-0.852-1.037-1.313-2.584-1.379-4.641l3.536-0.602c0.033,0.836,0.121,1.534,0.264,2.094c0.142,0.561,0.355,0.979,0.64,1.255
			c0.284,0.275,0.652,0.413,1.103,0.413c0.518,0,0.873-0.167,1.065-0.501c0.192-0.335,0.289-0.719,0.289-1.154
			c0-0.853-0.197-1.567-0.59-2.145c-0.392-0.576-0.932-1.157-1.617-1.743l-2.132-1.831c-0.485-0.451-0.92-0.911-1.305-1.379
			c-0.385-0.468-0.689-1.004-0.915-1.605c-0.227-0.602-0.339-1.313-0.339-2.132c0-1.571,0.447-2.797,1.342-3.675
			c0.894-0.878,2.094-1.375,3.599-1.492v-2.232h1.204v2.232c0.903,0.05,1.644,0.255,2.22,0.614c0.577,0.36,1.016,0.812,1.317,1.355
			c0.301,0.544,0.517,1.138,0.651,1.781c0.134,0.644,0.218,1.267,0.251,1.868l-3.586,0.527c-0.018-0.619-0.067-1.167-0.151-1.644
			c-0.083-0.477-0.234-0.849-0.451-1.116c-0.218-0.267-0.552-0.393-1.003-0.376c-0.469,0.017-0.824,0.201-1.066,0.552
			c-0.242,0.352-0.363,0.744-0.363,1.179c0,0.77,0.184,1.389,0.552,1.857c0.367,0.468,0.785,0.92,1.254,1.354l2.082,1.806
			c0.552,0.502,1.061,1.045,1.529,1.63c0.469,0.586,0.845,1.233,1.129,1.944c0.284,0.711,0.427,1.526,0.427,2.445
			c0,0.887-0.18,1.693-0.539,2.421c-0.36,0.727-0.878,1.316-1.556,1.767c-0.677,0.452-1.475,0.719-2.396,0.803v2.357H603.346z"/>
		<path style="fill:#263238;" d="M610.669,375.825v-2.734l4.942-7.6c0.367-0.568,0.715-1.111,1.041-1.63
			c0.325-0.518,0.593-1.049,0.802-1.593c0.209-0.543,0.314-1.124,0.314-1.743c0-0.652-0.125-1.149-0.376-1.492
			c-0.251-0.343-0.61-0.515-1.078-0.515c-0.502,0-0.887,0.139-1.154,0.414c-0.268,0.276-0.451,0.64-0.552,1.091
			c-0.1,0.452-0.15,0.945-0.15,1.48v0.953h-3.787v-1.004c0-1.204,0.188-2.273,0.565-3.21c0.376-0.937,0.97-1.668,1.78-2.195
			c0.812-0.526,1.877-0.79,3.198-0.79c1.789,0,3.136,0.469,4.038,1.405c0.903,0.937,1.354,2.249,1.354,3.938
			c0,0.819-0.125,1.576-0.376,2.27c-0.251,0.694-0.581,1.363-0.991,2.007c-0.409,0.643-0.849,1.308-1.316,1.994l-3.913,5.895h6.045
			v3.06H610.669z"/>
		<path style="fill:#263238;" d="M623.987,379.286l-0.301-1.279c0.435-0.134,0.827-0.363,1.179-0.689
			c0.352-0.326,0.526-0.823,0.526-1.492h-1.981v-3.662h3.638v3.235c-0.018,1.171-0.276,2.082-0.778,2.734
			C625.769,378.785,625.007,379.169,623.987,379.286z"/>
		<path style="fill:#263238;" d="M634.897,375.825v-4.74h-6.17v-3.035l5.292-12.541h4.515v12.616h1.957v2.96h-1.957v4.74H634.897z
			 M631.788,368.125h3.109v-8.628L631.788,368.125z"/>
		<path style="fill:#263238;" d="M647.413,376.102c-1.254,0-2.257-0.197-3.01-0.59c-0.752-0.393-1.296-0.978-1.63-1.756
			c-0.335-0.777-0.502-1.727-0.502-2.847c0-0.05,0-0.101,0-0.15c0-0.05,0-0.101,0-0.15h3.662c0,0.853,0.088,1.488,0.264,1.906
			c0.176,0.418,0.589,0.627,1.241,0.627c0.401,0,0.711-0.126,0.928-0.376c0.218-0.251,0.368-0.678,0.452-1.279
			c0.083-0.603,0.125-1.413,0.125-2.434v-2.081c-0.234,0.368-0.577,0.651-1.028,0.852c-0.451,0.2-0.97,0.31-1.555,0.326
			c-1.088,0.017-1.957-0.247-2.608-0.79c-0.652-0.543-1.116-1.275-1.393-2.195c-0.275-0.919-0.414-1.939-0.414-3.06
			c0-1.388,0.176-2.592,0.527-3.611c0.35-1.021,0.932-1.814,1.743-2.383c0.811-0.568,1.877-0.853,3.197-0.853
			c1.288,0,2.333,0.272,3.136,0.815c0.803,0.544,1.388,1.301,1.756,2.271c0.367,0.97,0.552,2.106,0.552,3.41v7.399
			c0,1.321-0.15,2.509-0.452,3.562c-0.301,1.054-0.844,1.882-1.63,2.483C649.988,375.8,648.868,376.102,647.413,376.102z
			 M647.438,365.19c0.385,0,0.698-0.104,0.94-0.313c0.242-0.209,0.431-0.414,0.564-0.614v-3.235c0-0.519-0.042-0.995-0.125-1.43
			c-0.084-0.435-0.234-0.786-0.452-1.054c-0.217-0.268-0.535-0.401-0.953-0.401c-0.418,0-0.735,0.143-0.953,0.427
			c-0.217,0.284-0.363,0.686-0.439,1.203c-0.075,0.518-0.113,1.146-0.113,1.882c0,0.686,0.025,1.296,0.075,1.831
			c0.051,0.535,0.18,0.953,0.39,1.254C646.581,365.04,646.936,365.19,647.438,365.19z"/>
		<path style="fill:#263238;" d="M660.656,376.177c-1.355,0-2.429-0.256-3.223-0.766c-0.795-0.51-1.367-1.229-1.719-2.157
			c-0.351-0.928-0.526-1.993-0.526-3.197v-0.728h3.862c0,0.033,0,0.121,0,0.264c0,0.142,0,0.28,0,0.413
			c0.017,0.652,0.071,1.191,0.163,1.618c0.092,0.427,0.255,0.748,0.489,0.966c0.234,0.218,0.568,0.326,1.003,0.326
			c0.452,0,0.786-0.113,1.004-0.339c0.217-0.225,0.367-0.556,0.451-0.991c0.084-0.435,0.125-0.969,0.125-1.604
			c0-1.02-0.15-1.811-0.451-2.37c-0.301-0.56-0.902-0.849-1.806-0.865c-0.017,0-0.101,0-0.251,0c-0.15,0-0.293,0-0.427,0v-2.859
			c0.101,0,0.205,0,0.314,0c0.108,0,0.204,0,0.288,0c0.902,0,1.518-0.242,1.844-0.727c0.326-0.485,0.488-1.246,0.488-2.282
			c0-0.803-0.117-1.43-0.351-1.882c-0.234-0.451-0.669-0.677-1.305-0.677c-0.636,0-1.053,0.251-1.254,0.752
			c-0.2,0.502-0.31,1.145-0.326,1.932c0,0.134,0,0.28,0,0.438c0,0.159,0,0.314,0,0.465h-3.862v-1.104
			c0-1.188,0.217-2.195,0.652-3.022c0.435-0.828,1.053-1.459,1.856-1.894c0.803-0.436,1.781-0.652,2.935-0.652
			c1.154,0,2.141,0.209,2.96,0.627c0.819,0.418,1.442,1.028,1.868,1.831c0.427,0.803,0.64,1.798,0.64,2.984
			c0,1.188-0.246,2.174-0.739,2.96c-0.494,0.786-1.1,1.287-1.818,1.505c0.501,0.167,0.944,0.443,1.329,0.827
			c0.385,0.385,0.686,0.899,0.902,1.543c0.218,0.644,0.326,1.442,0.326,2.396c0,1.221-0.175,2.304-0.526,3.248
			c-0.352,0.944-0.928,1.685-1.73,2.22C663.039,375.908,661.977,376.177,660.656,376.177z"/>
		<path style="fill:#263238;" d="M668.582,379.286l-0.301-1.279c0.434-0.134,0.827-0.363,1.179-0.689
			c0.351-0.326,0.526-0.823,0.526-1.492h-1.981v-3.662h3.638v3.235c-0.018,1.171-0.276,2.082-0.778,2.734
			C670.363,378.785,669.602,379.169,668.582,379.286z"/>
		<path style="fill:#263238;" d="M679.091,376.102c-1.254,0-2.257-0.197-3.01-0.59c-0.752-0.393-1.296-0.978-1.63-1.756
			c-0.335-0.777-0.502-1.727-0.502-2.847c0-0.05,0-0.101,0-0.15c0-0.05,0-0.101,0-0.15h3.662c0,0.853,0.088,1.488,0.264,1.906
			c0.176,0.418,0.589,0.627,1.241,0.627c0.401,0,0.711-0.126,0.928-0.376c0.218-0.251,0.368-0.678,0.452-1.279
			c0.083-0.603,0.125-1.413,0.125-2.434v-2.081c-0.234,0.368-0.577,0.651-1.028,0.852c-0.451,0.2-0.97,0.31-1.555,0.326
			c-1.088,0.017-1.957-0.247-2.608-0.79c-0.652-0.543-1.116-1.275-1.393-2.195c-0.275-0.919-0.414-1.939-0.414-3.06
			c0-1.388,0.176-2.592,0.527-3.611c0.351-1.021,0.932-1.814,1.743-2.383c0.81-0.568,1.877-0.853,3.197-0.853
			c1.288,0,2.333,0.272,3.136,0.815c0.803,0.544,1.388,1.301,1.756,2.271c0.367,0.97,0.552,2.106,0.552,3.41v7.399
			c0,1.321-0.15,2.509-0.452,3.562c-0.301,1.054-0.844,1.882-1.63,2.483C681.666,375.8,680.546,376.102,679.091,376.102z
			 M679.116,365.19c0.385,0,0.698-0.104,0.94-0.313c0.242-0.209,0.431-0.414,0.565-0.614v-3.235c0-0.519-0.042-0.995-0.125-1.43
			c-0.084-0.435-0.234-0.786-0.452-1.054c-0.217-0.268-0.535-0.401-0.953-0.401c-0.418,0-0.735,0.143-0.953,0.427
			c-0.217,0.284-0.363,0.686-0.439,1.203c-0.075,0.518-0.113,1.146-0.113,1.882c0,0.686,0.025,1.296,0.075,1.831
			c0.051,0.535,0.18,0.953,0.39,1.254C678.259,365.04,678.614,365.19,679.116,365.19z"/>
		<path style="fill:#263238;" d="M692.785,375.825v-4.74h-6.17v-3.035l5.292-12.541h4.515v12.616h1.957v2.96h-1.957v4.74H692.785z
			 M689.676,368.125h3.109v-8.628L689.676,368.125z"/>
		<path style="fill:#263238;" d="M705.15,376.177c-1.421,0-2.508-0.26-3.261-0.778c-0.752-0.518-1.267-1.245-1.542-2.182
			c-0.276-0.936-0.414-2.031-0.414-3.286h3.737c0,0.736,0.046,1.354,0.138,1.856c0.092,0.502,0.259,0.878,0.502,1.129
			c0.242,0.251,0.606,0.368,1.091,0.351c0.485-0.017,0.836-0.2,1.054-0.552c0.217-0.351,0.351-0.853,0.401-1.505
			c0.05-0.652,0.075-1.421,0.075-2.308c0-0.719-0.042-1.354-0.126-1.906c-0.083-0.552-0.246-0.986-0.488-1.304
			c-0.243-0.317-0.615-0.477-1.116-0.477c-0.452,0-0.824,0.159-1.116,0.477c-0.293,0.317-0.506,0.77-0.64,1.354h-3.311l0.275-11.538
			h9.33v3.336h-6.144l-0.226,4.49c0.2-0.251,0.539-0.469,1.016-0.652c0.477-0.184,0.99-0.293,1.542-0.326
			c1.054-0.101,1.928,0.101,2.621,0.602c0.694,0.502,1.208,1.242,1.543,2.22c0.334,0.979,0.502,2.17,0.502,3.574
			c0,1.07-0.067,2.061-0.201,2.973s-0.393,1.697-0.777,2.357c-0.385,0.661-0.936,1.175-1.655,1.543
			C707.24,375.992,706.305,376.177,705.15,376.177z"/>
	</g>
</g>
<g id="Chart_5">
	<g>
		<g>
			
				<rect x="593.525" y="321.397" style="fill:#263238;stroke:#263238;stroke-linecap:round;stroke-linejoin:round;stroke-miterlimit:10;" width="11.266" height="23.437"/>
			
				<rect x="608.105" y="275.694" style="fill:#92E3A9;stroke:#263238;stroke-linecap:round;stroke-linejoin:round;stroke-miterlimit:10;" width="11.266" height="69.14"/>
			
				<rect x="622.684" y="318.468" style="fill:#263238;stroke:#263238;stroke-linecap:round;stroke-linejoin:round;stroke-miterlimit:10;" width="11.266" height="26.367"/>
			
				<rect x="637.264" y="306.163" style="fill:#92E3A9;stroke:#263238;stroke-linecap:round;stroke-linejoin:round;stroke-miterlimit:10;" width="11.266" height="38.672"/>
			
				<rect x="651.844" y="315.538" style="fill:#263238;stroke:#263238;stroke-linecap:round;stroke-linejoin:round;stroke-miterlimit:10;" width="11.266" height="29.297"/>
			
				<rect x="666.423" y="306.163" style="fill:#92E3A9;stroke:#263238;stroke-linecap:round;stroke-linejoin:round;stroke-miterlimit:10;" width="11.266" height="38.672"/>
			
				<rect x="681.003" y="290.929" style="fill:#263238;stroke:#263238;stroke-linecap:round;stroke-linejoin:round;stroke-miterlimit:10;" width="11.266" height="53.906"/>
			
				<rect x="695.583" y="306.163" style="fill:#92E3A9;stroke:#263238;stroke-linecap:round;stroke-linejoin:round;stroke-miterlimit:10;" width="11.266" height="38.672"/>
			
				<rect x="710.162" y="328.429" style="fill:#263238;stroke:#263238;stroke-linecap:round;stroke-linejoin:round;stroke-miterlimit:10;" width="11.266" height="16.406"/>
		</g>
		<g>
			
				<line style="fill:none;stroke:#263238;stroke-width:3;stroke-linecap:round;stroke-linejoin:round;stroke-miterlimit:10;" x1="593.525" y1="252.257" x2="630.439" y2="252.257"/>
			
				<line style="fill:none;stroke:#263238;stroke-linecap:round;stroke-linejoin:round;stroke-miterlimit:10;" x1="593.525" y1="259.874" x2="654.462" y2="259.874"/>
		</g>
	</g>
</g>
<g id="Chart_4">
	<g>
		<g>
			<polyline style="fill:none;stroke:#263238;stroke-linecap:round;stroke-linejoin:round;stroke-miterlimit:10;" points="
				588.932,97.3 656.901,97.3 656.901,178.745 			"/>
			<polyline style="fill:none;stroke:#263238;stroke-linecap:round;stroke-linejoin:round;stroke-miterlimit:10;" points="
				657.487,159.995 716.666,159.995 716.666,178.454 			"/>
			
				<line style="fill:none;stroke:#263238;stroke-linecap:round;stroke-linejoin:round;stroke-miterlimit:10;" x1="687.956" y1="160.581" x2="687.956" y2="178.454"/>
			<polyline style="fill:none;stroke:#263238;stroke-linecap:round;stroke-linejoin:round;stroke-miterlimit:10;" points="
				563.151,113.706 563.151,174.058 589.518,174.058 			"/>
			<path style="fill:#92E3A9;stroke:#263238;stroke-linecap:round;stroke-linejoin:round;stroke-miterlimit:10;" d="
				M586.718,117.012h-40.172c-3.126,0-5.66-2.534-5.66-5.66v-23.04c0-3.126,2.534-5.66,5.66-5.66h40.172
				c3.126,0,5.66,2.534,5.66,5.66v23.04C592.378,114.478,589.844,117.012,586.718,117.012z"/>
			<path style="fill:#263238;stroke:#263238;stroke-linecap:round;stroke-linejoin:round;stroke-miterlimit:10;" d="
				M620.116,189.083h-40.172c-3.126,0-5.66-2.534-5.66-5.66v-23.04c0-3.126,2.534-5.66,5.66-5.66h40.172
				c3.126,0,5.66,2.534,5.66,5.66v23.04C625.776,186.548,623.242,189.083,620.116,189.083z"/>
			<path style="fill:#FFFFFF;stroke:#263238;stroke-linecap:round;stroke-linejoin:round;stroke-miterlimit:10;" d="
				M682.811,149.825h-40.172c-3.126,0-5.66-2.534-5.66-5.66v-23.04c0-3.126,2.534-5.66,5.66-5.66h40.172
				c3.126,0,5.66,2.534,5.66,5.66v23.04C688.471,147.291,685.937,149.825,682.811,149.825z"/>
			<path style="fill:#92E3A9;stroke:#263238;stroke-linecap:round;stroke-linejoin:round;stroke-miterlimit:10;" d="
				M664.437,187.044h-16.889c-2.446,0-4.428-1.983-4.428-4.428v-8.324c0-2.446,1.983-4.428,4.428-4.428h16.889
				c2.446,0,4.428,1.983,4.428,4.428v8.324C668.865,185.061,666.883,187.044,664.437,187.044z"/>
			<path style="fill:#92E3A9;stroke:#263238;stroke-linecap:round;stroke-linejoin:round;stroke-miterlimit:10;" d="
				M694.642,187.044h-16.889c-2.446,0-4.428-1.983-4.428-4.428v-8.324c0-2.446,1.983-4.428,4.428-4.428h16.889
				c2.446,0,4.428,1.983,4.428,4.428v8.324C699.071,185.061,697.088,187.044,694.642,187.044z"/>
			<path style="fill:#92E3A9;stroke:#263238;stroke-linecap:round;stroke-linejoin:round;stroke-miterlimit:10;" d="
				M724.848,187.044h-16.889c-2.446,0-4.428-1.983-4.428-4.428v-8.324c0-2.446,1.983-4.428,4.428-4.428h16.889
				c2.446,0,4.428,1.983,4.428,4.428v8.324C729.276,185.061,727.293,187.044,724.848,187.044z"/>
		</g>
		
			<line style="fill:none;stroke:#263238;stroke-linecap:round;stroke-linejoin:round;stroke-miterlimit:10;" x1="555.496" y1="99.266" x2="576.981" y2="99.266"/>
		
			<line style="fill:none;stroke:#FFFFFF;stroke-linecap:round;stroke-linejoin:round;stroke-miterlimit:10;" x1="589.157" y1="171.602" x2="610.643" y2="171.602"/>
		
			<line style="fill:none;stroke:#FFFFFF;stroke-linecap:round;stroke-linejoin:round;stroke-miterlimit:10;" x1="589.157" y1="175.899" x2="610.643" y2="175.899"/>
		
			<line style="fill:none;stroke:#263238;stroke-linecap:round;stroke-linejoin:round;stroke-miterlimit:10;" x1="650.033" y1="134.359" x2="680.114" y2="134.359"/>
		
			<line style="fill:none;stroke:#263238;stroke-linecap:round;stroke-linejoin:round;stroke-miterlimit:10;" x1="650.033" y1="130.345" x2="680.114" y2="130.345"/>
	</g>
</g>
<g id="Chart_3">
	<g>
		<g>
			
				<line style="fill:none;stroke:#263238;stroke-linecap:round;stroke-linejoin:round;stroke-miterlimit:10;" x1="240.725" y1="142.633" x2="240.725" y2="150.128"/>
			
				<line style="fill:none;stroke:#263238;stroke-linecap:round;stroke-linejoin:round;stroke-miterlimit:10;" x1="259.265" y1="142.633" x2="259.265" y2="150.128"/>
			
				<line style="fill:none;stroke:#263238;stroke-linecap:round;stroke-linejoin:round;stroke-miterlimit:10;" x1="277.805" y1="142.633" x2="277.805" y2="150.128"/>
			
				<line style="fill:none;stroke:#263238;stroke-linecap:round;stroke-linejoin:round;stroke-miterlimit:10;" x1="296.345" y1="142.633" x2="296.345" y2="150.128"/>
			
				<line style="fill:none;stroke:#263238;stroke-linecap:round;stroke-linejoin:round;stroke-miterlimit:10;" x1="314.885" y1="142.633" x2="314.885" y2="150.128"/>
			
				<line style="fill:none;stroke:#263238;stroke-linecap:round;stroke-linejoin:round;stroke-miterlimit:10;" x1="333.424" y1="142.633" x2="333.424" y2="150.128"/>
			
				<line style="fill:none;stroke:#263238;stroke-linecap:round;stroke-linejoin:round;stroke-miterlimit:10;" x1="351.964" y1="142.633" x2="351.964" y2="150.128"/>
			
				<line style="fill:none;stroke:#263238;stroke-linecap:round;stroke-linejoin:round;stroke-miterlimit:10;" x1="370.504" y1="142.633" x2="370.504" y2="150.128"/>
			
				<line style="fill:none;stroke:#263238;stroke-linecap:round;stroke-linejoin:round;stroke-miterlimit:10;" x1="389.044" y1="142.633" x2="389.044" y2="150.128"/>
			
				<line style="fill:none;stroke:#263238;stroke-linecap:round;stroke-linejoin:round;stroke-miterlimit:10;" x1="407.515" y1="142.633" x2="407.515" y2="150.128"/>
			
				<line style="fill:none;stroke:#263238;stroke-linecap:round;stroke-linejoin:round;stroke-miterlimit:10;" x1="426.055" y1="142.633" x2="426.055" y2="150.128"/>
			
				<line style="fill:none;stroke:#263238;stroke-linecap:round;stroke-linejoin:round;stroke-miterlimit:10;" x1="444.595" y1="142.633" x2="444.595" y2="150.128"/>
			
				<line style="fill:none;stroke:#263238;stroke-linecap:round;stroke-linejoin:round;stroke-miterlimit:10;" x1="463.065" y1="142.633" x2="463.065" y2="150.128"/>
			
				<line style="fill:none;stroke:#263238;stroke-linecap:round;stroke-linejoin:round;stroke-miterlimit:10;" x1="481.605" y1="142.633" x2="481.605" y2="150.128"/>
			
				<line style="fill:none;stroke:#263238;stroke-linecap:round;stroke-linejoin:round;stroke-miterlimit:10;" x1="500.145" y1="142.633" x2="500.145" y2="150.128"/>
			
				<line style="fill:none;stroke:#263238;stroke-linecap:round;stroke-linejoin:round;stroke-miterlimit:10;" x1="234.808" y1="142.633" x2="503.901" y2="142.633"/>
			
				<polyline style="fill:none;stroke:#263238;stroke-width:3;stroke-linecap:round;stroke-linejoin:round;stroke-miterlimit:10;" points="
				249.009,136.716 267.154,123.699 285.3,85.249 304.629,124.488 320.802,103.976 340.13,118.176 359.459,65.167 379.182,101.609 
				395.75,82.674 411.529,106.879 434.066,93.864 452.16,102.117 469.936,93.864 493.743,65.613 			"/>
		</g>
		<polygon style="fill:#263238;" points="463.717,40.014 494.186,40.014 494.186,55.248 486.276,55.248 492.428,64.623 
			481.046,55.248 463.717,55.248 		"/>
		<polygon style="fill:#92E3A9;" points="463.717,135.254 494.186,135.254 494.186,120.02 486.276,120.02 492.428,110.645 
			481.046,120.02 463.717,120.02 		"/>
		
			<polyline style="fill:none;stroke:#92E3A9;stroke-width:3;stroke-linecap:round;stroke-linejoin:round;stroke-miterlimit:10;" points="
			247.746,119.962 269.944,103.313 287.097,116.935 304.25,102.304 321.404,117.944 344.106,89.187 361.764,99.277 378.917,118.448 
			396.07,97.763 415.746,84.646 434.413,108.358 453.079,113.908 468.214,112.394 492.431,101.295 		"/>
	</g>
</g>
<g id="Chart_2">
	<g>
		<g>
			<path style="fill:none;stroke:#9E9E9E;stroke-width:9;stroke-miterlimit:10;" d="M33.902,193.629
				c6.283,7.461,15.694,12.202,26.212,12.202c13.886,0,25.841-8.263,31.219-20.14"/>
			<path style="fill:none;stroke:#92E3A9;stroke-width:9;stroke-miterlimit:10;" d="M30.105,155.053
				c-2.704,4.9-4.244,10.534-4.244,16.526c0,8.399,3.023,16.092,8.04,22.05"/>
			<path style="fill:none;stroke:#263238;stroke-width:9;stroke-miterlimit:10;" d="M91.332,185.691
				c1.948-4.303,3.033-9.081,3.033-14.112c0-18.917-15.335-34.252-34.252-34.252c-12.924,0-24.176,7.158-30.008,17.725"/>
		</g>
		<g>
			<g>
				<path style="fill:#263238;" d="M116.732,154.859c0-2.435-1.974-4.409-4.409-4.409c-2.435,0-4.409,1.974-4.409,4.409
					c0,2.435,1.974,4.409,4.409,4.409C114.758,159.268,116.732,157.294,116.732,154.859z"/>
			</g>
			<g>
				<path style="fill:#9E9E9E;" d="M116.732,173.816c0-2.435-1.974-4.409-4.409-4.409c-2.435,0-4.409,1.974-4.409,4.409
					c0,2.435,1.974,4.409,4.409,4.409C114.758,178.225,116.732,176.251,116.732,173.816z"/>
			</g>
			<g>
				<path style="fill:#92E3A9;" d="M116.732,195.092c0-2.435-1.974-4.409-4.409-4.409c-2.435,0-4.409,1.974-4.409,4.409
					c0,2.435,1.974,4.409,4.409,4.409C114.758,199.501,116.732,197.527,116.732,195.092z"/>
			</g>
			
				<line style="fill:none;stroke:#263238;stroke-linecap:round;stroke-linejoin:round;stroke-miterlimit:10;" x1="123.346" y1="155.41" x2="169.642" y2="155.41"/>
			
				<line style="fill:none;stroke:#263238;stroke-linecap:round;stroke-linejoin:round;stroke-miterlimit:10;" x1="123.346" y1="173.598" x2="169.642" y2="173.598"/>
			
				<line style="fill:none;stroke:#263238;stroke-linecap:round;stroke-linejoin:round;stroke-miterlimit:10;" x1="123.346" y1="195.092" x2="169.642" y2="195.092"/>
		</g>
	</g>
</g>
<g id="Chart_1">
	<g>
		<g>
			
				<rect x="24.276" y="257.994" style="fill:none;stroke:#263238;stroke-linecap:round;stroke-linejoin:round;stroke-miterlimit:10;" width="130.996" height="10.142"/>
			
				<rect x="24.276" y="274.052" style="fill:none;stroke:#263238;stroke-linecap:round;stroke-linejoin:round;stroke-miterlimit:10;" width="130.996" height="10.142"/>
			
				<rect x="24.276" y="290.109" style="fill:none;stroke:#263238;stroke-linecap:round;stroke-linejoin:round;stroke-miterlimit:10;" width="130.996" height="10.142"/>
			
				<rect x="24.276" y="306.167" style="fill:none;stroke:#263238;stroke-linecap:round;stroke-linejoin:round;stroke-miterlimit:10;" width="130.996" height="10.142"/>
			
				<rect x="24.276" y="322.224" style="fill:none;stroke:#263238;stroke-linecap:round;stroke-linejoin:round;stroke-miterlimit:10;" width="130.996" height="10.142"/>
		</g>
		<g>
			<g>
				
					<line style="fill:none;stroke:#263238;stroke-width:3;stroke-linecap:round;stroke-linejoin:round;stroke-miterlimit:10;" x1="26.441" y1="250.567" x2="63.355" y2="250.567"/>
				
					<line style="fill:none;stroke:#263238;stroke-linecap:round;stroke-linejoin:round;stroke-miterlimit:10;" x1="26.441" y1="258.184" x2="87.378" y2="258.184"/>
			</g>
			<g>
				
					<rect x="24.276" y="272.345" style="fill:none;stroke:#263238;stroke-linecap:round;stroke-linejoin:round;stroke-miterlimit:10;" width="130.996" height="10.142"/>
				
					<rect x="24.276" y="288.403" style="fill:none;stroke:#263238;stroke-linecap:round;stroke-linejoin:round;stroke-miterlimit:10;" width="130.996" height="10.142"/>
				
					<rect x="24.276" y="304.461" style="fill:none;stroke:#263238;stroke-linecap:round;stroke-linejoin:round;stroke-miterlimit:10;" width="130.996" height="10.142"/>
				
					<rect x="24.276" y="320.518" style="fill:none;stroke:#263238;stroke-linecap:round;stroke-linejoin:round;stroke-miterlimit:10;" width="130.996" height="10.142"/>
				
					<rect x="24.276" y="336.576" style="fill:none;stroke:#263238;stroke-linecap:round;stroke-linejoin:round;stroke-miterlimit:10;" width="130.996" height="10.142"/>
			</g>
			<g>
				
					<rect x="24.276" y="272.345" style="fill:#263238;stroke:#263238;stroke-linecap:round;stroke-linejoin:round;stroke-miterlimit:10;" width="48.7" height="10.142"/>
				
					<rect x="24.276" y="288.403" style="fill:#92E3A9;stroke:#263238;stroke-linecap:round;stroke-linejoin:round;stroke-miterlimit:10;" width="66.035" height="10.142"/>
				
					<rect x="24.276" y="304.461" style="fill:#263238;stroke:#263238;stroke-linecap:round;stroke-linejoin:round;stroke-miterlimit:10;" width="25.074" height="10.142"/>
				
					<rect x="24.276" y="320.518" style="fill:#92E3A9;stroke:#263238;stroke-linecap:round;stroke-linejoin:round;stroke-miterlimit:10;" width="107.764" height="10.142"/>
				
					<rect x="24.276" y="336.576" style="fill:#263238;stroke:#263238;stroke-linecap:round;stroke-linejoin:round;stroke-miterlimit:10;" width="80.201" height="10.142"/>
			</g>
		</g>
	</g>
</g>
<g id="Device">
	<g>
		<g>
			<path style="fill:#263238;stroke:#263238;stroke-linecap:round;stroke-linejoin:round;stroke-miterlimit:10;" d="M526.52,376.006
				H226.232c-5.295,0-9.588-4.293-9.588-9.588V188.126c0-5.296,4.293-9.588,9.588-9.588H526.52c5.295,0,9.588,4.293,9.588,9.588
				v178.292C536.108,371.713,531.815,376.006,526.52,376.006z"/>
			<path style="fill:#FFFFFF;stroke:#263238;stroke-linecap:round;stroke-linejoin:round;stroke-miterlimit:10;" d="
				M524.952,198.679v157.186c0,5.124-4.165,9.29-9.289,9.29h-278.57c-5.134,0-9.289-4.165-9.289-9.29V198.679
				c0-5.124,4.156-9.29,9.289-9.29h278.57C520.786,189.389,524.952,193.554,524.952,198.679z"/>
			<polygon style="fill:#92E3A9;" points="523.983,250.193 523.983,340.666 394.714,340.666 394.714,305.145 437.626,305.145 
				437.626,273.082 476.596,273.082 476.596,245.95 523.46,245.95 			"/>
			<path style="fill:#FFFFFF;stroke:#263238;stroke-linecap:round;stroke-linejoin:round;stroke-miterlimit:10;" d="
				M524.952,341.664v14.201c0,5.124-4.165,9.29-9.289,9.29h-278.57c-5.134,0-9.289-4.165-9.289-9.29v-14.201H524.952z"/>
			<g>
				<path style="fill:#FFFFFF;stroke:#263238;stroke-linecap:round;stroke-linejoin:round;stroke-miterlimit:10;" d="
					M496.267,297.194h-12.731c-1.009,0-1.828-0.818-1.828-1.828v-12.731c0-1.009,0.818-1.828,1.828-1.828h12.731
					c1.009,0,1.828,0.818,1.828,1.828v12.731C498.095,296.376,497.276,297.194,496.267,297.194z"/>
				<path style="fill:#FFFFFF;stroke:#263238;stroke-linecap:round;stroke-linejoin:round;stroke-miterlimit:10;" d="
					M496.267,338.307h-12.731c-1.009,0-1.828-0.818-1.828-1.828v-12.731c0-1.009,0.818-1.828,1.828-1.828h12.731
					c1.009,0,1.828,0.818,1.828,1.828v12.731C498.095,337.488,497.276,338.307,496.267,338.307z"/>
				<path style="fill:#FFFFFF;stroke:#263238;stroke-linecap:round;stroke-linejoin:round;stroke-miterlimit:10;" d="
					M502.265,315.923v-12.731c0-1.009,0.818-1.828,1.828-1.828h12.731c1.009,0,1.828,0.818,1.828,1.828v12.731
					c0,1.009-0.818,1.828-1.828,1.828h-12.731C503.083,317.75,502.265,316.932,502.265,315.923z"/>
				<path style="fill:#FFFFFF;stroke:#263238;stroke-linecap:round;stroke-linejoin:round;stroke-miterlimit:10;" d="
					M461.152,315.923v-12.731c0-1.009,0.818-1.828,1.828-1.828h12.731c1.009,0,1.828,0.818,1.828,1.828v12.731
					c0,1.009-0.818,1.828-1.828,1.828H462.98C461.971,317.75,461.152,316.932,461.152,315.923z"/>
			</g>
			<g>
				<g>
					<path style="fill:#FFFFFF;stroke:#263238;stroke-linecap:round;stroke-linejoin:round;stroke-miterlimit:10;" d="
						M359.167,298.587h-20.488c-4.544,0-8.229-3.684-8.229-8.229c0-4.544,3.684-8.229,8.229-8.229h12.26v-6.618
						c0-4.544,3.684-8.229,8.229-8.229c4.545,0,8.228,3.684,8.228,8.229v14.847C367.396,294.903,363.712,298.587,359.167,298.587z"
						/>
				</g>
				<path style="fill:#263238;stroke:#263238;stroke-linecap:round;stroke-linejoin:round;stroke-miterlimit:10;" d="
					M363.473,284.123L363.473,284.123c-1.886,0-3.415-1.529-3.415-3.415v-15.589h6.829v15.589
					C366.888,282.594,365.359,284.123,363.473,284.123z"/>
				
					<circle style="fill:#92E3A9;stroke:#263238;stroke-linecap:round;stroke-linejoin:round;stroke-miterlimit:10;" cx="334.819" cy="289.468" r="14.55"/>
				<path style="fill:#92E3A9;stroke:#263238;stroke-linecap:round;stroke-linejoin:round;stroke-miterlimit:10;" d="
					M335.207,305.799h-33.736c-3.394,0-6.145-2.751-6.145-6.145v-12.06c0-3.393,2.751-6.145,6.145-6.145h33.736
					c3.393,0,6.145,2.751,6.145,6.145v12.06C341.351,303.048,338.6,305.799,335.207,305.799z"/>
				<g>
					<path style="fill:#FFFFFF;stroke:#263238;stroke-linecap:round;stroke-linejoin:round;stroke-miterlimit:10;" d="
						M350.853,336.335c-4.328,0-7.837-3.509-7.837-7.837v-12.949h-5.525c-4.328,0-7.837-3.509-7.837-7.837s3.509-7.837,7.837-7.837
						h13.362c4.328,0,7.837,3.509,7.837,7.837v20.786C358.69,332.826,355.181,336.335,350.853,336.335z"/>
				</g>
				<path style="fill:#FFFFFF;stroke:#263238;stroke-linecap:round;stroke-linejoin:round;stroke-miterlimit:10;" d="
					M343.016,315.549v12.949c0,4.328,3.508,7.837,7.837,7.837c4.328,0,7.837-3.509,7.837-7.837v-12.949H343.016z"/>
				<g>
					<path style="fill:#FFFFFF;stroke:#263238;stroke-linecap:round;stroke-linejoin:round;stroke-miterlimit:10;" d="
						M302.75,332.367h-19.004c-4.328,0-7.837-3.509-7.837-7.837c0-4.328,3.508-7.837,7.837-7.837h11.167v-8.198
						c0-4.328,3.508-7.837,7.837-7.837c4.328,0,7.837,3.509,7.837,7.837v16.035C310.587,328.858,307.078,332.367,302.75,332.367z"/>
				</g>
				<path style="fill:#FFFFFF;stroke:#263238;stroke-linecap:round;stroke-linejoin:round;stroke-miterlimit:10;" d="
					M295.327,315.004h-0.413v1.69h-11.167c-4.328,0-7.837,3.509-7.837,7.837c0,4.328,3.508,7.837,7.837,7.837h11.581V315.004z"/>
				<path style="fill:#263238;stroke:#263238;stroke-linecap:round;stroke-linejoin:round;stroke-miterlimit:10;" d="
					M269.345,341.283v-25.536h16.331v15.844c0,5.353-4.339,9.692-9.692,9.692H269.345z"/>
				<path style="fill:#FFFFFF;stroke:#263238;stroke-linecap:round;stroke-linejoin:round;stroke-miterlimit:10;" d="
					M267.415,341.728v-25.239c0-1.066,0.864-1.93,1.93-1.93l0,0c1.066,0,1.93,0.864,1.93,1.93v25.239c0,1.066-0.864,1.93-1.93,1.93
					l0,0C268.279,343.658,267.415,342.794,267.415,341.728z"/>
				
					<rect x="295.92" y="299.267" style="fill:#263238;stroke:#263238;stroke-linecap:round;stroke-linejoin:round;stroke-miterlimit:10;" width="45.431" height="17.222"/>
				
					<rect x="295.92" y="299.267" style="fill:#92E3A9;stroke:#263238;stroke-linecap:round;stroke-linejoin:round;stroke-miterlimit:10;" width="45.431" height="4.348"/>
				
					<rect x="311.709" y="299.267" style="fill:#92E3A9;stroke:#263238;stroke-linecap:round;stroke-linejoin:round;stroke-miterlimit:10;" width="13.854" height="28.419"/>
				<path style="fill:#FFFFFF;stroke:#263238;stroke-linecap:round;stroke-linejoin:round;stroke-miterlimit:10;" d="
					M326.259,284.42h-19.998c-3.087,0-5.59-2.503-5.59-5.59v-8.714c0-3.087,2.503-5.59,5.59-5.59h19.998
					c3.087,0,5.59,2.503,5.59,5.59v8.714C331.849,281.917,329.347,284.42,326.259,284.42z"/>
				<path style="fill:#263238;stroke:#263238;stroke-linecap:round;stroke-linejoin:round;stroke-miterlimit:10;" d="
					M316.409,269.276v8.314h16.925v16.925l-15.606-4.145c-2.003-0.532-3.397-2.345-3.397-4.418v-1.533h-10.891
					c-1.857,0-3.362-1.505-3.362-3.362v-12.152C300.077,268.906,316.409,268.089,316.409,269.276z"/>
				
					<circle style="fill:#FFFFFF;stroke:#263238;stroke-linecap:round;stroke-linejoin:round;stroke-miterlimit:10;" cx="330.959" cy="275.215" r="4.218"/>
				<path style="fill:#92E3A9;stroke:#263238;stroke-linecap:round;stroke-linejoin:round;stroke-miterlimit:10;" d="
					M326.223,257.416l-11.299-5.362l-9.496,5.213c-3.483,1.912-5.648,5.571-5.648,9.544v4.246h32.663v-3.805
					C332.443,263.048,330.022,259.219,326.223,257.416z"/>
				
					<circle style="fill:#263238;stroke:#263238;stroke-linecap:round;stroke-linejoin:round;stroke-miterlimit:10;" cx="303.344" cy="268.089" r="1.188"/>
				<path style="fill:#263238;stroke:#263238;stroke-linecap:round;stroke-linejoin:round;stroke-miterlimit:10;" d="
					M311.064,268.089c0-0.656-0.532-1.188-1.188-1.188c-0.656,0-1.188,0.532-1.188,1.188s0.532,1.188,1.188,1.188
					C310.532,269.276,311.064,268.745,311.064,268.089z"/>
				<path style="fill:#263238;stroke:#263238;stroke-linecap:round;stroke-linejoin:round;stroke-miterlimit:10;" d="
					M317.597,268.089c0-0.656-0.532-1.188-1.188-1.188c-0.656,0-1.188,0.532-1.188,1.188s0.532,1.188,1.188,1.188
					C317.065,269.276,317.597,268.745,317.597,268.089z"/>
				<path style="fill:#263238;stroke:#263238;stroke-linecap:round;stroke-linejoin:round;stroke-miterlimit:10;" d="
					M324.129,268.089c0-0.656-0.532-1.188-1.188-1.188c-0.656,0-1.188,0.532-1.188,1.188s0.532,1.188,1.188,1.188
					C323.597,269.276,324.129,268.745,324.129,268.089z"/>
				<path style="fill:#263238;stroke:#263238;stroke-linecap:round;stroke-linejoin:round;stroke-miterlimit:10;" d="
					M330.662,268.089c0-0.656-0.532-1.188-1.188-1.188c-0.656,0-1.188,0.532-1.188,1.188s0.532,1.188,1.188,1.188
					C330.13,269.276,330.662,268.745,330.662,268.089z"/>
				<path style="fill:#FFFFFF;stroke:#263238;stroke-linecap:round;stroke-linejoin:round;stroke-miterlimit:10;" d="
					M367.773,280.263h-0.114c-2.674,0-4.843-2.168-4.843-4.843v-2.786c0-2.674,2.168-4.843,4.843-4.843h0.114
					c2.674,0,4.843,2.168,4.843,4.843v2.786C372.615,278.095,370.447,280.263,367.773,280.263z"/>
				<path style="fill:#FFFFFF;stroke:#263238;stroke-linecap:round;stroke-linejoin:round;stroke-miterlimit:10;" d="
					M350.939,275.512V272.8c0-2.766,2.242-5.009,5.009-5.009h4.408c1.64,0,2.969,1.329,2.969,2.969l0,0
					c0,1.64-1.329,2.969-2.969,2.969h-1.188v5.939"/>
				<polygon style="fill:#FFFFFF;stroke:#263238;stroke-linecap:round;stroke-linejoin:round;stroke-miterlimit:10;" points="
					370.154,232.753 363.918,227.705 357.089,232.753 357.089,264.228 370.154,264.228 				"/>
				<path style="fill:#FFFFFF;stroke:#263238;stroke-linecap:round;stroke-linejoin:round;stroke-miterlimit:10;" d="
					M373.272,267.198h-21.082c-0.902,0-1.633-0.731-1.633-1.633l0,0c0-0.902,0.731-1.633,1.633-1.633h21.082
					c0.902,0,1.633,0.731,1.633,1.633l0,0C374.905,266.466,374.174,267.198,373.272,267.198z"/>
				
					<line style="fill:none;stroke:#263238;stroke-linecap:round;stroke-linejoin:round;stroke-miterlimit:10;" x1="363.918" y1="227.705" x2="363.918" y2="263.338"/>
				<path style="fill:#263238;stroke:#263238;stroke-linecap:round;stroke-linejoin:round;stroke-miterlimit:10;" d="
					M368.372,340.837h-25.536v-16.331h15.844c5.353,0,9.692,4.339,9.692,9.692V340.837z"/>
				<path style="fill:#FFFFFF;stroke:#263238;stroke-linecap:round;stroke-linejoin:round;stroke-miterlimit:10;" d="
					M368.818,341.431h-25.239c-1.066,0-1.93-0.864-1.93-1.93l0,0c0-1.066,0.864-1.93,1.93-1.93h25.239c1.066,0,1.93,0.864,1.93,1.93
					l0,0C370.748,340.567,369.884,341.431,368.818,341.431z"/>
				
					<circle style="fill:#92E3A9;stroke:#263238;stroke-linecap:round;stroke-linejoin:round;stroke-miterlimit:10;" cx="289.982" cy="289.468" r="14.55"/>
				<g>
					
						<circle style="fill:#FFFFFF;stroke:#263238;stroke-linecap:round;stroke-linejoin:round;stroke-miterlimit:10;" cx="283.152" cy="304.018" r="23.805"/>
					
						<circle style="fill:#FFFFFF;stroke:#263238;stroke-linecap:round;stroke-linejoin:round;stroke-miterlimit:10;" cx="283.152" cy="304.018" r="16.872"/>
					<g>
						<path style="fill:#263238;stroke:#263238;stroke-linecap:round;stroke-linejoin:round;stroke-miterlimit:10;" d="
							M283.111,304.317l-14.977,7.382c0.783,1.53,1.807,2.968,3.088,4.249c1.421,1.421,3.039,2.517,4.759,3.325l7.291-14.794
							l-0.318,0.157L283.111,304.317z"/>
						<path style="fill:#263238;stroke:#263238;stroke-linecap:round;stroke-linejoin:round;stroke-miterlimit:10;" d="
							M290.693,288.934l-7.582,15.383l0.318-0.157l-0.157,0.318l15.2-7.491c-0.813-1.773-1.93-3.44-3.39-4.9
							C293.763,290.768,292.275,289.725,290.693,288.934z"/>
					</g>
					<path style="fill:#FFFFFF;stroke:#263238;stroke-linecap:round;stroke-linejoin:round;stroke-miterlimit:10;" d="
						M285.297,306.163c1.185-1.185,1.185-3.106,0-4.29c-1.185-1.185-3.106-1.185-4.29,0s-1.185,3.106,0,4.29
						C282.192,307.348,284.113,307.348,285.297,306.163z"/>
					<path style="fill:#FFFFFF;stroke:#263238;stroke-linecap:round;stroke-linejoin:round;stroke-miterlimit:10;" d="
						M270.134,290.58c0.696-0.696,0.696-1.824,0-2.52c-0.696-0.696-1.824-0.696-2.52,0c-0.696,0.696-0.696,1.824,0,2.52
						C268.311,291.276,269.439,291.276,270.134,290.58z"/>
					<path style="fill:#FFFFFF;stroke:#263238;stroke-linecap:round;stroke-linejoin:round;stroke-miterlimit:10;" d="
						M298.9,319.345c0.696-0.696,0.696-1.824,0-2.52s-1.824-0.696-2.52,0c-0.696,0.696-0.696,1.824,0,2.52
						C297.076,320.041,298.204,320.041,298.9,319.345z"/>
					<path style="fill:#FFFFFF;stroke:#263238;stroke-linecap:round;stroke-linejoin:round;stroke-miterlimit:10;" d="
						M296.38,290.58c0.696,0.696,1.824,0.696,2.52,0c0.696-0.696,0.696-1.824,0-2.52c-0.696-0.696-1.824-0.696-2.52,0
						C295.684,288.756,295.684,289.884,296.38,290.58z"/>
					<path style="fill:#FFFFFF;stroke:#263238;stroke-linecap:round;stroke-linejoin:round;stroke-miterlimit:10;" d="
						M267.615,319.345c0.696,0.696,1.824,0.696,2.52,0c0.696-0.696,0.696-1.824,0-2.52c-0.696-0.696-1.824-0.696-2.52,0
						S266.919,318.649,267.615,319.345z"/>
					
						<circle style="fill:#FFFFFF;stroke:#263238;stroke-linecap:round;stroke-linejoin:round;stroke-miterlimit:10;" cx="303.597" cy="303.703" r="1.782"/>
					
						<circle style="fill:#FFFFFF;stroke:#263238;stroke-linecap:round;stroke-linejoin:round;stroke-miterlimit:10;" cx="262.917" cy="303.703" r="1.782"/>
					<path style="fill:#FFFFFF;stroke:#263238;stroke-linecap:round;stroke-linejoin:round;stroke-miterlimit:10;" d="
						M283.257,285.144c0.984,0,1.782-0.798,1.782-1.782c0-0.984-0.798-1.782-1.782-1.782c-0.984,0-1.782,0.798-1.782,1.782
						C281.475,284.347,282.273,285.144,283.257,285.144z"/>
					<path style="fill:#FFFFFF;stroke:#263238;stroke-linecap:round;stroke-linejoin:round;stroke-miterlimit:10;" d="
						M283.257,325.824c0.984,0,1.782-0.798,1.782-1.782c0-0.984-0.798-1.782-1.782-1.782c-0.984,0-1.782,0.798-1.782,1.782
						C281.475,325.027,282.273,325.824,283.257,325.824z"/>
				</g>
			</g>
			<path style="fill:#263238;" d="M420.766,247.747h-32.787c-4.045,0-7.324-3.279-7.324-7.324v-32.787
				c0-4.045,3.279-7.325,7.324-7.325h32.787c4.045,0,7.324,3.279,7.324,7.325v32.787
				C428.091,244.467,424.812,247.747,420.766,247.747z"/>
			<path style="fill:#FFFFFF;stroke:#263238;stroke-linecap:round;stroke-linejoin:round;stroke-miterlimit:10;" d="
				M281.812,247.747h-32.787c-4.045,0-7.324-3.279-7.324-7.324v-32.787c0-4.045,3.279-7.325,7.324-7.325h32.787
				c4.045,0,7.324,3.279,7.324,7.325v32.787C289.137,244.467,285.857,247.747,281.812,247.747z"/>
			<g>
				<path style="fill:#92E3A9;" d="M407.93,231.089h-8.854v-0.885c0-1.507,0.171-2.73,0.513-3.67c0.342-0.94,0.85-1.798,1.526-2.575
					c0.676-0.777,2.194-2.144,4.555-4.101c1.258-1.025,1.887-1.965,1.887-2.819c0-0.854-0.253-1.518-0.758-1.992
					c-0.505-0.473-1.269-0.711-2.294-0.711c-1.104,0-2.016,0.365-2.737,1.096c-0.723,0.73-1.185,2.003-1.387,3.821l-9.041-1.118
					c0.311-3.324,1.518-5.999,3.623-8.027c2.105-2.027,5.331-3.041,9.681-3.041c3.386,0,6.12,0.707,8.201,2.12
					c2.827,1.91,4.24,4.458,4.24,7.642c0,1.321-0.365,2.594-1.095,3.821c-0.73,1.227-2.221,2.727-4.474,4.497
					c-1.569,1.243-2.559,2.241-2.97,2.994C408.135,228.895,407.93,229.878,407.93,231.089z M398.773,233.442h9.482v8.365h-9.482
					V233.442z"/>
			</g>
			<g>
				
					<circle style="fill:#92E3A9;stroke:#263238;stroke-linecap:round;stroke-linejoin:round;stroke-miterlimit:10;" cx="476.965" cy="224.196" r="14.305"/>
				
					<ellipse transform="matrix(0.973 -0.2308 0.2308 0.973 -38.866 116.1317)" style="fill:#92E3A9;stroke:#263238;stroke-linecap:round;stroke-linejoin:round;stroke-miterlimit:10;" cx="476.965" cy="224.196" rx="10.502" ry="10.502"/>
			</g>
			<g>
				
					<circle style="fill:#92E3A9;stroke:#263238;stroke-linecap:round;stroke-linejoin:round;stroke-miterlimit:10;" cx="332.536" cy="224.196" r="14.305"/>
				
					<ellipse transform="matrix(0.973 -0.2308 0.2308 0.973 -42.7651 82.7989)" style="fill:#92E3A9;stroke:#263238;stroke-linecap:round;stroke-linejoin:round;stroke-miterlimit:10;" cx="332.536" cy="224.196" rx="10.502" ry="10.502"/>
			</g>
			<path style="fill:#92E3A9;stroke:#263238;stroke-linecap:round;stroke-linejoin:round;stroke-miterlimit:10;" d="
				M446.719,349.879c0,0.845-0.321,1.695-0.967,2.341l-1.683,1.687l-4.683,4.683l-4.683-4.683l-1.687-1.687
				c-1.293-1.293-1.293-3.39,0-4.683c0.646-0.646,1.492-0.967,2.341-0.967c0.85,0,1.695,0.321,2.341,0.967l1.687,1.687l1.683-1.687
				c1.293-1.293,3.39-1.293,4.683,0C446.398,348.184,446.719,349.034,446.719,349.879z"/>
			<path style="fill:#92E3A9;stroke:#263238;stroke-linecap:round;stroke-linejoin:round;stroke-miterlimit:10;" d="M465.66,349.879
				c0,0.845-0.321,1.695-0.967,2.341l-1.683,1.687l-4.683,4.683l-4.683-4.683l-1.687-1.687c-1.293-1.293-1.293-3.39,0-4.683
				c0.646-0.646,1.492-0.967,2.341-0.967c0.849,0,1.695,0.321,2.341,0.967l1.687,1.687l1.683-1.687c1.293-1.293,3.39-1.293,4.683,0
				C465.339,348.184,465.66,349.034,465.66,349.879z"/>
			<path style="fill:#92E3A9;stroke:#263238;stroke-linecap:round;stroke-linejoin:round;stroke-miterlimit:10;" d="M280.74,218.17
				c0,1.791-0.68,3.59-2.049,4.959l-3.564,3.573l-9.918,9.918l-9.918-9.918l-3.573-3.573c-2.738-2.738-2.738-7.18,0-9.918
				c1.369-1.369,3.16-2.049,4.959-2.049c1.799,0,3.59,0.68,4.959,2.049l3.573,3.573l3.564-3.573c2.738-2.738,7.18-2.738,9.918,0
				C280.06,214.58,280.74,216.379,280.74,218.17z"/>
			<path style="fill:#92E3A9;stroke:#263238;stroke-linecap:round;stroke-linejoin:round;stroke-miterlimit:10;" d="
				M484.601,349.879c0,0.845-0.321,1.695-0.968,2.341l-1.683,1.687l-4.683,4.683l-4.683-4.683l-1.687-1.687
				c-1.293-1.293-1.293-3.39,0-4.683c0.646-0.646,1.492-0.967,2.341-0.967c0.85,0,1.695,0.321,2.341,0.967l1.687,1.687l1.683-1.687
				c1.293-1.293,3.39-1.293,4.683,0C484.28,348.184,484.601,349.034,484.601,349.879z"/>
			
				<rect x="264.954" y="350.515" style="fill:#92E3A9;stroke:#263238;stroke-linecap:round;stroke-linejoin:round;stroke-miterlimit:10;" width="93.727" height="5.426"/>
			
				<rect x="363.614" y="350.515" style="fill:#92E3A9;stroke:#263238;stroke-linecap:round;stroke-linejoin:round;stroke-miterlimit:10;" width="12.332" height="5.426"/>
		</g>
		<g>
			<g>
				<g>
					<path style="fill:#FFFFFF;stroke:#263238;stroke-linecap:round;stroke-linejoin:round;stroke-miterlimit:10;" d="
						M250.276,376.006h-24.345c-5.13,0-9.288-4.158-9.288-9.288V258.214c-6.561,4.861-20.171,15.194-24.813,20.609
						c-6.203,7.237-10.855,18.61-12.923,30.499c-2.068,11.889-9.822,22.228-7.754,27.914c2.068,5.686,9.822,40.321,12.406,54.278
						c2.585,13.957,3.102,25.33,3.102,28.431s-7.754,42.388-7.754,42.388l56.346,2.068c0,0-1.034-19.643,1.034-25.847
						c2.068-6.203,10.855-20.677,9.822-29.465C245.093,400.458,251.043,385.358,250.276,376.006z"/>
					<path style="fill:#263238;stroke:#263238;stroke-linecap:round;stroke-linejoin:round;stroke-miterlimit:10;" d="
						M216.644,277.691l-5.683,6.604c0,0-2.071,11.07-3.105,16.239c-1.034,5.169-3.102,9.305-3.102,9.305s3.618,8.271,5.686,11.373
						c2.068,3.102,3.102,6.203,3.102,6.203l3.102,1.974V277.691z"/>
					<path style="fill:none;stroke:#263238;stroke-linecap:round;stroke-linejoin:round;stroke-miterlimit:10;" d="M190.676,311.142
						c0,0,4.176-0.597,8.353-0.597"/>
					<path style="fill:none;stroke:#263238;stroke-linecap:round;stroke-linejoin:round;stroke-miterlimit:10;" d="M204.995,280.118
						c0,0,5.966,1.79,5.966,4.176"/>
				</g>
				<path style="fill:#FFFFFF;stroke:#263238;stroke-linecap:round;stroke-linejoin:round;stroke-miterlimit:10;" d="
					M169.123,469.032c0,0,2.583-24.54,2.583-27.123c0-2.583,0-5.166,0-7.749s2.583-4.52,2.583-4.52s25.185-5.166,50.371,3.229
					c25.185,8.395,19.373,21.957,19.373,21.957l-1.292,19.373"/>
			</g>
			<g>
				<path style="fill:#FFFFFF;stroke:#263238;stroke-linecap:round;stroke-linejoin:round;stroke-miterlimit:10;" d="
					M202.704,347.625c0,0,9.288-20.211,10.322-27.965c1.034-7.754-1.034-25.847,1.551-33.084c2.585-7.237,1.034-16.542,7.237-20.16
					c6.203-3.618,14.474-2.585,16.025,11.889c1.551,14.474,0,37.219,0.517,44.973c0.517,7.754,13.957,19.126,14.474,35.668
					c0.517,16.542-5.169,33.601-6.72,40.838c-1.551,7.237-7.754,24.296-7.754,24.296"/>
				<path style="fill:none;stroke:#263238;stroke-linecap:round;stroke-linejoin:round;stroke-miterlimit:10;" d="M217.132,283.141
					c0,0,4.164-1.216,9.333-0.183c5.169,1.034,8.271,2.068,8.271,2.068s0.517-5.169,0-10.339c0,0,0.686-5.905-2.894-8.291
					c-3.58-2.387-10.739-1.79-13.126,3.58C216.33,275.345,217.132,283.141,217.132,283.141z"/>
				<path style="fill:none;stroke:#263238;stroke-linecap:round;stroke-linejoin:round;stroke-miterlimit:10;" d="M230.053,292.647
					c0,0-11.932-3.58-14.915,1.193"/>
				<path style="fill:none;stroke:#263238;stroke-linecap:round;stroke-linejoin:round;stroke-miterlimit:10;" d="M218.12,295.63
					c0,0,3.58,1.193,11.336,0.597"/>
			</g>
		</g>
		<g>
			<g>
				<g>
					<path style="fill:#FFFFFF;stroke:#263238;stroke-linecap:round;stroke-linejoin:round;stroke-miterlimit:10;" d="
						M583.573,337.236c2.068-5.686-5.686-16.025-7.754-27.914c-2.068-11.889-6.72-23.262-12.923-30.499
						c-5.183-6.046-21.542-18.22-26.788-22.064v109.96c0,5.13-4.158,9.288-9.288,9.288h-22.37
						c-0.767,9.352,5.183,24.452,4.167,33.084c-1.034,8.788,7.754,23.262,9.822,29.465c2.068,6.203,1.034,25.847,1.034,25.847
						l56.346-2.068c0,0-7.754-39.287-7.754-42.388s0.517-14.474,3.102-28.431C573.751,377.557,581.505,342.922,583.573,337.236z"/>
					<path style="fill:#263238;stroke:#263238;stroke-linecap:round;stroke-linejoin:round;stroke-miterlimit:10;" d="
						M546.871,300.534c-1.034-5.169-3.105-16.239-3.105-16.239l-7.658-8.899v55.249l5.077-3.23c0,0,1.034-3.102,3.102-6.203
						c2.068-3.102,5.686-11.373,5.686-11.373S547.904,305.703,546.871,300.534z"/>
					<path style="fill:none;stroke:#263238;stroke-linecap:round;stroke-linejoin:round;stroke-miterlimit:10;" d="M564.051,311.142
						c0,0-4.176-0.597-8.353-0.597"/>
					<path style="fill:none;stroke:#263238;stroke-linecap:round;stroke-linejoin:round;stroke-miterlimit:10;" d="M549.732,280.118
						c0,0-5.966,1.79-5.966,4.176"/>
				</g>
				<path style="fill:#FFFFFF;stroke:#263238;stroke-linecap:round;stroke-linejoin:round;stroke-miterlimit:10;" d="
					M585.604,469.032c0,0-2.583-24.54-2.583-27.123c0-2.583,0-5.166,0-7.749s-2.583-4.52-2.583-4.52s-25.185-5.166-50.371,3.229
					c-25.185,8.395-19.373,21.957-19.373,21.957l1.292,19.373"/>
			</g>
			<g>
				<path style="fill:#FFFFFF;stroke:#263238;stroke-linecap:round;stroke-linejoin:round;stroke-miterlimit:10;" d="M547.244,352.3
					c0,0-14.436-28.006-17.245-35.307s-5.005-25.378-9.202-31.816c-4.197-6.438-4.852-15.848-11.727-17.925
					c-6.875-2.077-14.678,0.852-12.821,15.29c1.858,14.438,8.655,36.199,9.956,43.86c1.3,7.661-9.127,21.848-5.783,38.056
					c3.344,16.209,12.841,31.477,16.033,38.155"/>
				<path style="fill:none;stroke:#263238;stroke-linecap:round;stroke-linejoin:round;stroke-miterlimit:10;" d="M517.512,282.43
					c0,0-4.333-0.215-9.12,1.993c-4.787,2.208-7.563,3.935-7.563,3.935s-1.705-4.907-2.404-10.055c0,0-2.04-5.583,0.887-8.737
					s10.029-4.238,13.598,0.429C516.479,274.662,517.512,282.43,517.512,282.43z"/>
				<path style="fill:none;stroke:#263238;stroke-linecap:round;stroke-linejoin:round;stroke-miterlimit:10;" d="M507.156,294.681
					c0,0,10.773-6.257,14.784-2.308"/>
				<path style="fill:none;stroke:#263238;stroke-linecap:round;stroke-linejoin:round;stroke-miterlimit:10;" d="M519.455,294.807
					c0,0-3.204,1.993-10.886,3.216"/>
			</g>
		</g>
	</g>
</g>
</svg>
